<?xml version="1.0" encoding="UTF-8"?>
<!DOCTYPE svg PUBLIC "-//W3C//DTD SVG 1.1//EN" "http://www.w3.org/Graphics/SVG/1.1/DTD/svg11.dtd">
<!-- Creator: CorelDRAW 2021.5 -->
<svg xmlns="http://www.w3.org/2000/svg" xml:space="preserve" width="48px" height="48px" version="1.1" style="shape-rendering:geometricPrecision; text-rendering:geometricPrecision; image-rendering:optimizeQuality; fill-rule:evenodd; clip-rule:evenodd"
viewBox="0 0 17.24 17.24"
 xmlns:xlink="http://www.w3.org/1999/xlink"
 xmlns:xodm="http://www.corel.com/coreldraw/odm/2003">
 <defs>
  <style type="text/css">
   <![CDATA[
    .fil0 {fill:#1A3A50}
    .fil1 {fill:#B02F17}
    .fil2 {fill:#C8351A}
    .fil3 {fill:#0D1218;fill-rule:nonzero}
    .fil4 {fill:#0D1218;fill-rule:nonzero}
    .fil5 {fill:#E8A820;fill-rule:nonzero}
    .fil6 {fill:#F2C327;fill-rule:nonzero}
   ]]>
  </style>
 </defs>
 <g id="Camada_x0020_1">
  <metadata id="CorelCorpID_0Corel-Layer"/>
  <rect class="fil0" width="17.24" height="17.24" rx="0.82" ry="0.82"/>
  <rect class="fil1" x="1.94" y="1.94" width="13.37" height="13.37"/>
  <polygon class="fil2" points="14.65,5.27 2.41,10.89 1.94,1.94 14.64,2.6 "/>
  <path class="fil3" d="M1.94 1.27l13.66 0.67 0.37 14.03 -14.3 0 -0.4 -14.7 0.67 0zm12.7 1.33l-12.7 -0.66 0.66 12.7 12.11 0.67 -0.07 -12.71z"/>
  <path class="fil4" d="M3.9 13.73c0.06,-0.22 0.12,-0.46 0.19,-0.71 0.06,-0.26 0.12,-0.53 0.18,-0.81 0.06,-0.28 0.12,-0.57 0.18,-0.87 0.06,-0.31 0.11,-0.61 0.16,-0.89l0.3 -1.66c0.04,-0.21 0.08,-0.45 0.13,-0.71 0.04,-0.22 0.07,-0.41 0.1,-0.57 0.05,-0.32 0.1,-0.63 0.15,-0.94 0.04,-0.27 0.09,-0.58 0.15,-0.95 0.05,-0.33 0.1,-0.65 0.14,-0.97 0.05,-0.34 0.1,-0.67 0.15,-0.98l0.01 -0.11c2.45,-0.19 4.91,-0.37 7.36,-0.56l0.63 0.57c-0.41,1.08 -0.55,1.15 -0.47,2.31l-4.29 0.06 -0.47 1.57 2.68 0c0.08,0 0.15,0 0.21,-0.01l0.16 -0.02 0 0.07c0.05,0.06 0.29,0.28 0.68,0.5 0,0.13 -0.02,0.26 -0.04,0.38 -0.02,0.13 -0.03,0.26 -0.05,0.39l-0.13 0.75c-0.2,0 -2.37,0 -2.74,-0.02 -0.37,-0.01 -0.76,-0.02 -1.17,-0.03l-0.63 4.66c-0.21,0.03 -1.4,-0.29 -2.62,0l-0.98 -0.24 -0.04 0.01 0.07 -0.22z"/>
  <path class="fil5" d="M4.08 13.77c0.13,-0.45 0.25,-0.96 0.37,-1.54 0.13,-0.57 0.24,-1.16 0.35,-1.75 0.1,-0.6 0.21,-1.16 0.3,-1.67 0.09,-0.51 0.17,-0.94 0.22,-1.28 0.11,-0.62 0.21,-1.25 0.3,-1.89 0.1,-0.64 0.2,-1.29 0.29,-1.96l7.04 -0.53c-0.4,1.09 -0.54,1.15 -0.47,2.31l-4.29 0.07 -0.63 2.13c0.15,-0.01 0.29,-0.01 0.43,-0.01 0.14,0 0.27,0 0.4,0l0.66 0c0.11,0 2.1,0 2.19,0 0.08,0 0.15,-0.01 0.22,-0.02 -0.01,0.13 -0.02,0.26 -0.04,0.39 -0.02,0.12 -0.04,0.25 -0.06,0.38l-0.12 0.76c-0.2,0 -2.38,-0.01 -2.75,-0.02 -0.36,-0.02 -0.75,-0.03 -1.17,-0.04l-0.63 4.67c-0.2,0.03 -1.4,-0.3 -2.61,0z"/>
  <path class="fil6" d="M4.93 9.73c0.06,-0.32 0.12,-0.63 0.17,-0.92 0.09,-0.51 0.17,-0.94 0.22,-1.28 0.11,-0.62 0.21,-1.25 0.3,-1.89 0.1,-0.64 0.2,-1.29 0.29,-1.96l7.04 -0.53c-0.4,1.09 -0.54,1.15 -0.47,2.31l-4.29 0.07 -0.63 2.13c0.15,-0.01 0.29,-0.01 0.43,-0.01 0.14,0 0.27,0 0.4,0l0.66 0 0.42 0 -4.54 2.08z"/>
 </g>
</svg>
