<?xml version="1.0" encoding="UTF-8"?>
<!DOCTYPE svg PUBLIC "-//W3C//DTD SVG 1.1//EN" "http://www.w3.org/Graphics/SVG/1.1/DTD/svg11.dtd">
<!-- Creator: CorelDRAW 2021.5 -->
<svg xmlns="http://www.w3.org/2000/svg" xml:space="preserve" width="328px" height="126px" version="1.1" style="shape-rendering:geometricPrecision; text-rendering:geometricPrecision; image-rendering:optimizeQuality; fill-rule:evenodd; clip-rule:evenodd"
viewBox="0 0 302.64 116.58"
 xmlns:xlink="http://www.w3.org/1999/xlink"
 xmlns:xodm="http://www.corel.com/coreldraw/odm/2003">
 <defs>
  <style type="text/css">
   <![CDATA[
    .fil0 {fill:white}
   ]]>
  </style>
 </defs>
 <g id="Camada_x0020_1">
  <metadata id="CorelCorpID_0Corel-Layer"/>
  <path class="fil0" d="M129.83 116.33c2.65,0.5 10.98,0.09 14.22,0.09l144.38 0c4.97,0 9.3,0.79 12.16,-2.38 2.71,-3 1.95,-7.75 1.95,-12.37l-0.01 -72.3c0,-4.78 0.01,-9.56 0.01,-14.33 -0.01,-4.4 0.75,-9.81 -2.01,-12.52 -3.3,-3.24 -6.4,-2.35 -11.88,-2.36l-144.38 0c-4.09,0 -10.61,-0.39 -14.4,0.05l-0.04 116.12zm-118.28 -0.36l8.54 -3.93c2.88,-1.47 5.68,-2.97 8.24,-4.6 5.76,-3.68 10.36,-6.94 14.38,-11.29 3.58,-3.88 8.06,-9.23 8.34,-17.15 0.26,-7.26 -3.31,-14.47 -6.31,-19.39 -6.2,-10.14 -15.18,-23.4 -7.44,-37.76 4.95,-9.2 15.39,-16.03 24.86,-19.82l4.03 -1.54c0.61,-0.2 0.16,-0.09 0.55,-0.14 -0.66,-0.49 -43.4,-0.18 -48.25,-0.19 -3.24,0 -9.08,-0.33 -12.01,0.08 -8.29,1.17 -6.26,11.84 -6.26,18.22l0.01 60.75c-0.01,8.13 -0.01,16.25 0,24.38 0,4.23 -0.51,7.63 1.91,10.37 1.91,2.17 5.65,3.12 9.41,2.01zm75.02 -115.68c-0.41,0.32 -3.57,1.46 -4.42,1.82 -9.28,3.95 -20.82,10.73 -25.57,19.58 -7.54,14.08 4.12,27.55 9.53,36.84 5.28,9.05 8.89,19.18 3.98,29.93 -5.29,11.57 -16.48,18.59 -27.46,24.07 -1.47,0.73 -7.97,3.68 -9.25,3.68 0.79,0.49 5.61,0.21 6.93,0.22 2.62,0.01 4.69,0.16 7.06,-0.4 0.85,-0.74 19.65,-7.66 31.14,-20.23 0.61,-0.68 0.96,-1.03 1.51,-1.7 3.8,-4.63 6.51,-9.56 6.4,-16.18 -0.11,-7.04 -4.13,-14.11 -7.18,-18.6 -6.14,-9.01 -16.76,-22.74 -9.15,-37.19 4.24,-8.04 12.51,-14.27 20.39,-18.09 1.95,-0.94 7.21,-3.44 9.05,-3.67 -0.31,-0.21 0.09,-0.07 -0.45,-0.17 -1.29,-0.25 -11.93,0.01 -12.51,0.09zm31.61 0.43c-0.4,0.38 -3.67,1.54 -4.49,1.91 -1.48,0.65 -2.87,1.38 -4.32,2.1 -15.23,7.57 -28.75,20.39 -18.63,38.37 6.19,11.02 16.97,20.47 17.08,34.61 0.11,13.75 -10.38,23.61 -21.16,30.3 -2.87,1.78 -14.71,8.02 -17.34,8.22 0.67,0.43 52.88,0.42 58.01,0.17l0.02 -116.21c-1.59,-0.07 -3.17,-0.03 -4.69,-0.04 -2.43,0 -2.41,0.06 -4.48,0.57zm39.76 42.58c0,-0.98 -0.32,-1.73 -0.96,-2.25 -0.64,-0.53 -1.81,-1.08 -3.49,-1.67 -3.42,-1.11 -5.95,-2.29 -7.61,-3.55 -1.65,-1.25 -2.48,-3.05 -2.48,-5.41 0,-2.3 0.97,-4.16 2.89,-5.58 1.92,-1.43 4.37,-2.14 7.34,-2.14 3.14,0 5.66,0.74 7.58,2.2 1.91,1.47 2.83,3.53 2.78,6.21l-0.04 0.11 -6.2 0c0,-1.3 -0.35,-2.24 -1.05,-2.83 -0.71,-0.58 -1.78,-0.87 -3.19,-0.87 -1.16,0 -2.08,0.28 -2.74,0.85 -0.67,0.57 -1,1.26 -1,2.09 0,0.81 0.34,1.45 1.02,1.94 0.69,0.48 1.97,1.09 3.84,1.82 3.19,0.94 5.6,2.1 7.24,3.46 1.63,1.36 2.45,3.22 2.45,5.58 0,2.42 -0.94,4.32 -2.83,5.68 -1.89,1.37 -4.39,2.04 -7.51,2.05 -3.12,-0.01 -5.75,-0.73 -7.91,-2.2 -2.15,-1.47 -3.2,-3.77 -3.14,-6.92l0.04 -0.11 6.21 0c0,1.59 0.39,2.73 1.18,3.41 0.79,0.67 1.99,1 3.62,1 1.33,0 2.32,-0.26 2.98,-0.79 0.65,-0.53 0.98,-1.22 0.98,-2.08zm32.7 -3.98c0,3.38 -1.07,6.17 -3.22,8.37 -2.15,2.2 -4.95,3.29 -8.41,3.3 -3.49,-0.01 -6.31,-1.1 -8.48,-3.3 -2.16,-2.2 -3.24,-4.99 -3.24,-8.37l0 -4.95c0,-3.37 1.07,-6.16 3.23,-8.36 2.16,-2.2 4.98,-3.31 8.45,-3.31 3.45,0 6.26,1.11 8.43,3.31 2.16,2.2 3.24,4.99 3.24,8.36l0 4.95zm-6.36 -4.98c0,-1.97 -0.46,-3.58 -1.39,-4.84 -0.92,-1.26 -2.23,-1.89 -3.92,-1.89 -1.72,0 -3.04,0.63 -3.96,1.88 -0.91,1.25 -1.36,2.87 -1.36,4.85l0 4.98c0,1.99 0.46,3.61 1.38,4.87 0.93,1.26 2.26,1.89 3.98,1.89 1.68,0 2.97,-0.63 3.89,-1.89 0.92,-1.26 1.38,-2.88 1.38,-4.87l0 -4.98zm-4.57 -19.41l7.01 0 0.04 0.11 -5.31 4.91 -5.62 0 3.88 -5.02zm29 28.37c0,-0.98 -0.32,-1.73 -0.96,-2.25 -0.64,-0.53 -1.81,-1.08 -3.49,-1.67 -3.42,-1.11 -5.95,-2.29 -7.61,-3.55 -1.65,-1.25 -2.48,-3.05 -2.48,-5.41 0,-2.3 0.97,-4.16 2.89,-5.58 1.92,-1.43 4.37,-2.14 7.34,-2.14 3.14,0 5.66,0.74 7.58,2.2 1.91,1.47 2.83,3.53 2.78,6.21l-0.04 0.11 -6.2 0c0,-1.3 -0.35,-2.24 -1.05,-2.83 -0.71,-0.58 -1.78,-0.87 -3.19,-0.87 -1.16,0 -2.08,0.28 -2.74,0.85 -0.67,0.57 -1,1.26 -1,2.09 0,0.81 0.34,1.45 1.02,1.94 0.69,0.48 1.97,1.09 3.84,1.82 3.19,0.94 5.6,2.1 7.24,3.46 1.63,1.36 2.45,3.22 2.45,5.58 0,2.42 -0.94,4.32 -2.83,5.68 -1.89,1.37 -4.39,2.04 -7.51,2.05 -3.12,-0.01 -5.75,-0.73 -7.91,-2.2 -2.15,-1.47 -3.2,-3.77 -3.14,-6.92l0.04 -0.11 6.21 0c0,1.59 0.39,2.73 1.18,3.41 0.79,0.67 1.99,1 3.62,1 1.33,0 2.32,-0.26 2.98,-0.79 0.65,-0.53 0.98,-1.22 0.98,-2.08zm32.7 -3.98c0,3.38 -1.07,6.17 -3.22,8.37 -2.15,2.2 -4.95,3.29 -8.41,3.3 -3.49,-0.01 -6.31,-1.1 -8.48,-3.3 -2.16,-2.2 -3.24,-4.99 -3.24,-8.37l0 -4.95c0,-3.37 1.07,-6.16 3.23,-8.36 2.16,-2.2 4.98,-3.31 8.45,-3.31 3.45,0 6.26,1.11 8.43,3.31 2.16,2.2 3.24,4.99 3.24,8.36l0 4.95zm-6.36 -4.98c0,-1.97 -0.46,-3.58 -1.39,-4.84 -0.92,-1.26 -2.23,-1.89 -3.92,-1.89 -1.72,0 -3.04,0.63 -3.96,1.88 -0.91,1.25 -1.36,2.87 -1.36,4.85l0 4.98c0,1.99 0.46,3.61 1.38,4.87 0.93,1.26 2.26,1.89 3.98,1.89 1.68,0 2.97,-0.63 3.89,-1.89 0.92,-1.26 1.38,-2.88 1.38,-4.87l0 -4.98zm26.7 5.19l-10.07 0 0 11.06 -6.38 0 0 -27.49 18.37 0 0 4.91 -11.99 0 0 6.6 10.07 0 0 4.92zm19.52 5.72l-8.17 0 -1.59 5.34 -6.72 0 8.97 -27.49 3.42 0 0 0.02 0.02 -0.02 3.42 0 8.98 27.49 -6.72 0 -1.61 -5.34zm-6.7 -4.91l5.23 0 -2.57 -8.54 -0.11 0 -2.55 8.54zm3.27 -24.98l7 0 0.04 0.11 -5.3 4.91 -5.63 0 3.89 -5.02zm-84.96 55.32l-9.8 0 0 30.43 -8.6 0 0 -30.43 -9.62 0 0 -6.62 28.02 0 0 6.62zm12.03 17.78l-14.99 0 0 -6.64 14.99 0 0 6.64zm21.22 -24.93c1.42,0 2.7,0.12 3.81,0.36 1.12,0.25 2.37,0.64 3.74,1.19l-1.45 6.26c-1.19,-0.36 -2.21,-0.63 -3.07,-0.8 -0.87,-0.19 -1.86,-0.27 -2.98,-0.27 -2.1,0 -3.8,0.75 -5.07,2.25 -1.27,1.5 -1.91,3.73 -1.91,6.69l0 0.35c0.96,-0.94 2.1,-1.66 3.45,-2.17 1.35,-0.5 2.88,-0.75 4.6,-0.75 3.17,0 5.62,1.14 7.36,3.45 1.74,2.31 2.61,5.31 2.61,9.01 0,3.65 -1.21,6.65 -3.64,9.01 -2.43,2.36 -5.53,3.53 -9.34,3.54 -4.07,-0.01 -7.36,-1.34 -9.86,-4 -2.5,-2.66 -3.75,-6.31 -3.75,-10.94l0 -7.46c0,-4.88 1.44,-8.73 4.33,-11.53 2.9,-2.79 6.62,-4.19 11.17,-4.19zm-1.76 19.66c-1.22,0 -2.27,0.17 -3.13,0.49 -0.86,0.32 -1.54,0.78 -2.04,1.37l0 1.66c0,2.68 0.45,4.73 1.32,6.17 0.89,1.43 2.13,2.15 3.72,2.15 1.29,0 2.35,-0.57 3.15,-1.72 0.82,-1.15 1.23,-2.54 1.23,-4.21 0,-1.87 -0.39,-3.32 -1.17,-4.35 -0.79,-1.04 -1.81,-1.56 -3.08,-1.56zm29.26 -4.19c1.55,0 2.74,-0.42 3.57,-1.24 0.83,-0.84 1.25,-1.99 1.25,-3.47 0,-1.16 -0.43,-2.14 -1.27,-2.94 -0.85,-0.8 -2,-1.2 -3.44,-1.2 -1.09,0 -2.01,0.31 -2.76,0.94 -0.76,0.65 -1.13,1.48 -1.13,2.51l-8.35 0 -0.05 -0.15c-0.11,-2.95 1.06,-5.34 3.47,-7.18 2.42,-1.83 5.36,-2.74 8.82,-2.74 4.02,0 7.24,0.92 9.66,2.76 2.41,1.84 3.62,4.45 3.62,7.83 0,1.67 -0.5,3.22 -1.52,4.62 -1.03,1.41 -2.41,2.52 -4.15,3.34 2,0.73 3.54,1.82 4.63,3.29 1.08,1.47 1.63,3.25 1.63,5.36 0,3.39 -1.3,6.06 -3.91,8 -2.61,1.95 -5.92,2.91 -9.96,2.92 -3.49,-0.01 -6.53,-0.91 -9.11,-2.74 -2.58,-1.82 -3.82,-4.47 -3.74,-7.93l0.04 -0.15 8.38 0c0,1.21 0.42,2.2 1.25,3 0.83,0.8 1.89,1.2 3.18,1.2 1.54,0 2.81,-0.43 3.8,-1.28 0.99,-0.86 1.5,-1.92 1.5,-3.2 0,-1.8 -0.48,-3.11 -1.42,-3.93 -0.95,-0.82 -2.27,-1.24 -3.99,-1.24l-4.06 0 0 -6.38 4.06 0z"/>
 </g>
</svg>
