<?xml version="1.0" encoding="UTF-8"?>
<!DOCTYPE svg PUBLIC "-//W3C//DTD SVG 1.1//EN" "http://www.w3.org/Graphics/SVG/1.1/DTD/svg11.dtd">
<!-- Creator: CorelDRAW 2021.5 -->
<svg xmlns="http://www.w3.org/2000/svg" xml:space="preserve" width="156px" height="60px" version="1.1" style="shape-rendering:geometricPrecision; text-rendering:geometricPrecision; image-rendering:optimizeQuality; fill-rule:evenodd; clip-rule:evenodd"
viewBox="0 0 132.62 51.09"
 xmlns:xlink="http://www.w3.org/1999/xlink"
 xmlns:xodm="http://www.corel.com/coreldraw/odm/2003">
 <defs>
  <style type="text/css">
   <![CDATA[
    .fil0 {fill:#2C4393}
    .fil1 {fill:#C0392B}
    .fil2 {fill:#FEFEFE}
    .fil3 {fill:white;fill-rule:nonzero}
   ]]>
  </style>
 </defs>
 <g id="Camada_x0020_1">
  <metadata id="CorelCorpID_0Corel-Layer"/>
  <path class="fil0" d="M56.89 50.98c1.16,0.22 4.81,0.04 6.24,0.04l63.26 0c2.18,0 4.08,0.34 5.33,-1.05 1.19,-1.31 0.86,-3.39 0.86,-5.42l-0.01 -31.68c0,-2.09 0.01,-4.19 0.01,-6.28 -0.01,-1.93 0.33,-4.3 -0.89,-5.49 -1.44,-1.41 -2.8,-1.03 -5.2,-1.03l-63.27 0c-1.79,0 -4.65,-0.17 -6.31,0.02l-0.02 50.89z"/>
  <path class="fil1" d="M5.06 50.82l3.75 -1.72c1.26,-0.65 2.48,-1.3 3.6,-2.02 2.53,-1.61 4.54,-3.04 6.31,-4.95 1.56,-1.7 3.53,-4.04 3.65,-7.51 0.12,-3.18 -1.45,-6.34 -2.77,-8.5 -2.71,-4.44 -6.64,-10.25 -3.26,-16.54 2.17,-4.04 6.75,-7.03 10.9,-8.69l1.76 -0.67c0.28,-0.09 0.08,-0.05 0.25,-0.07 -0.29,-0.21 -19.02,-0.08 -21.14,-0.08 -1.43,0 -3.99,-0.14 -5.27,0.04 -3.63,0.51 -2.74,5.18 -2.74,7.98l0 26.62c0,3.56 0,7.12 0,10.68 0,1.86 -0.22,3.35 0.84,4.55 0.84,0.95 2.47,1.37 4.12,0.88z"/>
  <path class="fil1" d="M51.79 0.32c-0.18,0.16 -1.61,0.67 -1.97,0.83 -0.65,0.29 -1.26,0.61 -1.89,0.92 -6.67,3.32 -12.6,8.94 -8.17,16.82 2.72,4.83 7.44,8.97 7.49,15.16 0.05,6.03 -4.55,10.35 -9.27,13.28 -1.26,0.78 -6.45,3.51 -7.6,3.6 0.29,0.19 23.17,0.19 25.42,0.08l0.01 -50.93c-0.7,-0.03 -1.39,-0.01 -2.06,-0.01 -1.07,-0.01 -1.05,0.02 -1.96,0.25z"/>
  <path class="fil2" d="M20.76 50.85c-0.21,0.27 -0.06,0.19 0.94,0.18 1.95,-0.01 6.44,0.09 8.06,-0.01l0.62 -0.09c1.15,-0.09 6.34,-2.82 7.6,-3.6 4.72,-2.93 9.32,-7.25 9.27,-13.28 -0.05,-6.19 -4.77,-10.33 -7.49,-15.16 -4.43,-7.88 1.5,-13.5 8.17,-16.82 0.63,-0.31 1.24,-0.63 1.89,-0.92 0.36,-0.16 1.79,-0.67 1.97,-0.83 0.27,-0.43 0.1,-0.1 -0.01,-0.23 -1.31,-0.07 -2.7,0 -4.03,-0.01 -1.05,0 -3.23,-0.12 -4.14,0.08 -0.8,0.1 -3.1,1.2 -3.96,1.61 -3.45,1.67 -7.08,4.4 -8.93,7.93 -3.34,6.33 1.32,12.35 4,16.3 1.34,1.96 3.1,5.06 3.15,8.15 0.05,2.9 -1.14,5.06 -2.8,7.08 -0.25,0.3 -0.4,0.45 -0.67,0.75 -5.03,5.51 -13.27,8.54 -13.64,8.87z"/>
  <path class="fil2" d="M29.25 0.15c-0.17,0.02 0.03,-0.02 -0.25,0.07l-1.76 0.67c-4.15,1.66 -8.73,4.65 -10.9,8.69 -3.38,6.29 0.55,12.1 3.26,16.54 1.32,2.16 2.89,5.32 2.77,8.5 -0.12,3.47 -2.09,5.81 -3.65,7.51 -1.77,1.91 -3.78,3.34 -6.31,4.95 -1.12,0.72 -2.34,1.37 -3.6,2.02l-3.75 1.72c-0.13,0.33 -0.08,0.16 0.31,0.2l4.33 0.01c0.81,0 1.62,0 2.44,0l1.87 0c0.13,-0.01 0.13,0 0.26,-0.02 0.03,-0.01 0.05,-0.01 0.08,-0.02l0.28 -0.07c0.56,0 3.41,-1.29 4.05,-1.61 4.81,-2.4 9.72,-5.48 12.03,-10.55 2.16,-4.71 0.57,-9.15 -1.74,-13.11 -2.37,-4.07 -7.48,-9.97 -4.17,-16.14 2.07,-3.88 7.13,-6.86 11.2,-8.58 0.37,-0.16 1.76,-0.66 1.94,-0.8 -0.33,-0.14 -8,-0.07 -8.69,0.02z"/>
  <path class="fil1" d="M37.94 0.13c-0.18,0.14 -1.57,0.64 -1.94,0.8 -4.07,1.72 -9.13,4.7 -11.2,8.58 -3.31,6.17 1.8,12.07 4.17,16.14 2.31,3.96 3.9,8.4 1.74,13.11 -2.31,5.07 -7.22,8.15 -12.03,10.55 -0.64,0.32 -3.49,1.61 -4.05,1.61 0.35,0.22 2.46,0.1 3.04,0.1 1.14,0.01 2.05,0.07 3.09,-0.17 0.37,-0.33 8.61,-3.36 13.64,-8.87 0.27,-0.3 0.42,-0.45 0.67,-0.75 1.66,-2.02 2.85,-4.18 2.8,-7.08 -0.05,-3.09 -1.81,-6.19 -3.15,-8.15 -2.68,-3.95 -7.34,-9.97 -4,-16.3 1.85,-3.53 5.48,-6.26 8.93,-7.93 0.86,-0.41 3.16,-1.51 3.96,-1.61 -0.13,-0.09 0.04,-0.03 -0.19,-0.07 -0.56,-0.11 -5.23,0 -5.48,0.04z"/>
  <g id="_2461620519616">
   <path class="fil3" d="M69.21 18.98c0,-0.43 -0.14,-0.76 -0.42,-0.99 -0.28,-0.23 -0.79,-0.47 -1.53,-0.74 -1.5,-0.48 -2.61,-1 -3.33,-1.55 -0.73,-0.55 -1.09,-1.34 -1.09,-2.37 0,-1.01 0.42,-1.82 1.27,-2.45 0.84,-0.62 1.91,-0.93 3.22,-0.93 1.37,0 2.47,0.32 3.31,0.96 0.84,0.65 1.25,1.55 1.22,2.72l-0.02 0.05 -2.71 0c0,-0.57 -0.15,-0.98 -0.46,-1.24 -0.31,-0.25 -0.78,-0.38 -1.4,-0.38 -0.51,0 -0.91,0.12 -1.2,0.37 -0.29,0.25 -0.44,0.55 -0.44,0.92 0,0.35 0.15,0.63 0.45,0.85 0.3,0.21 0.86,0.48 1.68,0.8 1.4,0.41 2.45,0.91 3.17,1.51 0.72,0.6 1.08,1.41 1.08,2.45 0,1.06 -0.41,1.89 -1.24,2.49 -0.83,0.59 -1.93,0.89 -3.3,0.89 -1.36,0 -2.51,-0.32 -3.46,-0.96 -0.94,-0.64 -1.4,-1.65 -1.38,-3.03l0.02 -0.05 2.72 0c0,0.7 0.18,1.19 0.52,1.49 0.34,0.29 0.87,0.44 1.58,0.44 0.59,0 1.02,-0.11 1.31,-0.35 0.29,-0.23 0.43,-0.53 0.43,-0.9zm14.33 -1.75c0,1.48 -0.47,2.7 -1.41,3.67 -0.94,0.96 -2.17,1.44 -3.69,1.44 -1.52,0 -2.76,-0.48 -3.71,-1.44 -0.95,-0.97 -1.42,-2.19 -1.42,-3.67l0 -2.17c0,-1.48 0.47,-2.7 1.41,-3.66 0.95,-0.97 2.18,-1.45 3.71,-1.45 1.51,0 2.74,0.48 3.69,1.45 0.95,0.96 1.42,2.18 1.42,3.66l0 2.17zm-2.79 -2.18c0,-0.87 -0.2,-1.57 -0.61,-2.12 -0.4,-0.56 -0.97,-0.83 -1.71,-0.83 -0.76,0 -1.34,0.27 -1.74,0.82 -0.4,0.55 -0.6,1.26 -0.6,2.13l0 2.18c0,0.87 0.21,1.58 0.61,2.13 0.41,0.56 0.99,0.83 1.74,0.83 0.74,0 1.31,-0.27 1.71,-0.83 0.4,-0.55 0.6,-1.26 0.6,-2.13l0 -2.18zm-2 -8.51l3.07 0 0.02 0.05 -2.33 2.15 -2.46 0 1.7 -2.2zm12.71 12.44c0,-0.43 -0.14,-0.76 -0.42,-0.99 -0.28,-0.23 -0.8,-0.47 -1.53,-0.74 -1.5,-0.48 -2.61,-1 -3.34,-1.55 -0.72,-0.55 -1.08,-1.34 -1.08,-2.37 0,-1.01 0.42,-1.82 1.26,-2.45 0.85,-0.62 1.92,-0.93 3.22,-0.93 1.37,0 2.48,0.32 3.32,0.96 0.84,0.65 1.24,1.55 1.22,2.72l-0.02 0.05 -2.71 0c0,-0.57 -0.16,-0.98 -0.47,-1.24 -0.31,-0.25 -0.77,-0.38 -1.39,-0.38 -0.51,0 -0.91,0.12 -1.2,0.37 -0.3,0.25 -0.44,0.55 -0.44,0.92 0,0.35 0.15,0.63 0.45,0.85 0.3,0.21 0.86,0.48 1.68,0.8 1.4,0.41 2.45,0.91 3.17,1.51 0.72,0.6 1.08,1.41 1.08,2.45 0,1.06 -0.42,1.89 -1.24,2.49 -0.83,0.59 -1.93,0.89 -3.3,0.89 -1.36,0 -2.51,-0.32 -3.46,-0.96 -0.95,-0.64 -1.41,-1.65 -1.38,-3.03l0.02 -0.05 2.72 0c0,0.7 0.17,1.19 0.52,1.49 0.34,0.29 0.87,0.44 1.58,0.44 0.59,0 1.02,-0.11 1.31,-0.35 0.28,-0.23 0.43,-0.53 0.43,-0.9zm14.33 -1.75c0,1.48 -0.47,2.7 -1.41,3.67 -0.94,0.96 -2.17,1.44 -3.69,1.44 -1.53,0 -2.76,-0.48 -3.71,-1.44 -0.95,-0.97 -1.43,-2.19 -1.43,-3.67l0 -2.17c0,-1.48 0.48,-2.7 1.42,-3.66 0.95,-0.97 2.18,-1.45 3.71,-1.45 1.51,0 2.74,0.48 3.69,1.45 0.95,0.96 1.42,2.18 1.42,3.66l0 2.17zm-2.79 -2.18c0,-0.87 -0.2,-1.57 -0.61,-2.12 -0.4,-0.56 -0.97,-0.83 -1.71,-0.83 -0.76,0 -1.34,0.27 -1.74,0.82 -0.4,0.55 -0.6,1.26 -0.6,2.13l0 2.18c0,0.87 0.21,1.58 0.61,2.13 0.41,0.56 0.99,0.83 1.74,0.83 0.74,0 1.3,-0.27 1.71,-0.83 0.4,-0.55 0.6,-1.26 0.6,-2.13l0 -2.18zm11.7 2.27l-4.41 0 0 4.85 -2.8 0 0 -12.05 8.05 0 0 2.15 -5.25 0 0 2.9 4.41 0 0 2.15zm8.56 2.51l-3.58 0 -0.7 2.34 -2.95 0 3.93 -12.05 1.5 0 0 0.01 0.01 -0.01 1.5 0 3.94 12.05 -2.95 0 -0.7 -2.34zm-2.94 -2.15l2.29 0 -1.12 -3.74 -0.05 0 -1.12 3.74zm1.43 -10.95l3.07 0 0.02 0.05 -2.33 2.15 -2.46 0 1.7 -2.2z"/>
   <path class="fil3" d="M84.52 30.97l-4.29 0 0 13.34 -3.77 0 0 -13.34 -4.22 0 0 -2.9 12.28 0 0 2.9zm5.27 7.8l-6.56 0 0 -2.92 6.56 0 0 2.92zm9.3 -10.93c0.62,0 1.19,0.05 1.67,0.16 0.49,0.11 1.04,0.28 1.64,0.52l-0.63 2.74c-0.52,-0.16 -0.97,-0.27 -1.35,-0.35 -0.38,-0.08 -0.82,-0.12 -1.31,-0.12 -0.92,0 -1.66,0.33 -2.21,0.99 -0.57,0.66 -0.84,1.63 -0.84,2.93l0 0.15c0.42,-0.41 0.92,-0.72 1.51,-0.95 0.59,-0.22 1.26,-0.33 2.01,-0.33 1.39,0 2.47,0.5 3.23,1.52 0.76,1.01 1.14,2.32 1.14,3.94 0,1.6 -0.53,2.92 -1.59,3.95 -1.07,1.04 -2.43,1.55 -4.1,1.55 -1.78,0 -3.22,-0.58 -4.32,-1.75 -1.09,-1.17 -1.64,-2.76 -1.64,-4.79l0 -3.27c0,-2.14 0.63,-3.83 1.9,-5.05 1.27,-1.23 2.9,-1.84 4.89,-1.84zm-0.77 8.62c-0.53,0 -0.99,0.07 -1.37,0.21 -0.38,0.14 -0.68,0.34 -0.89,0.6l0 0.73c0,1.17 0.19,2.07 0.58,2.7 0.38,0.63 0.93,0.94 1.62,0.94 0.57,0 1.03,-0.25 1.39,-0.75 0.35,-0.5 0.53,-1.12 0.53,-1.85 0,-0.81 -0.17,-1.45 -0.51,-1.9 -0.34,-0.46 -0.79,-0.68 -1.35,-0.68zm12.83 -1.84c0.67,0 1.19,-0.19 1.56,-0.55 0.36,-0.36 0.54,-0.87 0.54,-1.52 0,-0.5 -0.18,-0.93 -0.55,-1.28 -0.38,-0.36 -0.88,-0.53 -1.51,-0.53 -0.48,0 -0.88,0.14 -1.21,0.41 -0.33,0.29 -0.49,0.65 -0.49,1.1l-3.66 0 -0.02 -0.07c-0.05,-1.29 0.46,-2.34 1.52,-3.14 1.06,-0.8 2.35,-1.2 3.86,-1.2 1.76,0 3.18,0.4 4.23,1.21 1.06,0.81 1.59,1.95 1.59,3.43 0,0.73 -0.22,1.41 -0.67,2.03 -0.45,0.61 -1.05,1.1 -1.81,1.46 0.87,0.32 1.55,0.8 2.02,1.44 0.48,0.64 0.72,1.42 0.72,2.35 0,1.48 -0.57,2.65 -1.71,3.5 -1.15,0.86 -2.6,1.28 -4.37,1.28 -1.53,0 -2.86,-0.4 -3.99,-1.2 -1.13,-0.79 -1.68,-1.96 -1.64,-3.47l0.02 -0.07 3.67 0c0,0.53 0.18,0.97 0.55,1.32 0.36,0.35 0.83,0.52 1.39,0.52 0.68,0 1.23,-0.19 1.67,-0.56 0.43,-0.38 0.65,-0.84 0.65,-1.4 0,-0.79 -0.21,-1.36 -0.62,-1.72 -0.41,-0.36 -0.99,-0.54 -1.74,-0.54l-1.79 0 0 -2.8 1.79 0z"/>
  </g>
 </g>
</svg>
